<svg aria-hidden="true" style="width:0;height:0;position:absolute;overflow:hidden" xmlns="http://www.w3.org/2000/svg"><defs><symbol id="icon-gigle" viewBox="0 0 225 32"><path fill="#fff" style="fill:var(--color1,#fff)" d="M0 0v32l6.4-6.398V6.399L0 .001z"/><path fill="#fff" style="fill:var(--color1,#fff)" d="M0 32h32.001l-6.4-6.398H6.4L0 32zM0 0l6.4 6.398h25.601V0H0zM25.601 19.199v6.402l6.4 6.398V12.8l-6.4 6.398z"/><path fill="#fff" style="fill:var(--color1,#fff)" d="M12.801 12.801v6.398h12.8l6.4-6.398h-19.2zM38.404 0v32h32v-6.4h-25.6V0h-6.4zM89.606 0v31.999h6.4V0h-6.4z"/><path fill="#fff" style="fill:var(--color1,#fff)" d="M76.806 25.602V32h32.002v-6.398H76.807zM76.806 0v6.398h32.002V0H76.806zM115.21 0v32l6.4-6.398V6.399l-6.4-6.398z"/><path fill="#fff" style="fill:var(--color1,#fff)" d="M115.21 32h32.001l-6.4-6.398H121.61L115.21 32zM115.21 0l6.4 6.398h25.601V0H115.21zM140.811 19.199v6.402l6.4 6.398V12.8l-6.4 6.398z"/><path fill="#fff" style="fill:var(--color1,#fff)" d="M128.011 12.801v6.398h12.8l6.4-6.398h-19.2zM153.613 0v32h32v-6.4h-25.6V0h-6.4zM192.015 0v32h32v-6.4h-25.6v-6.4h19.2v-6.4h-19.2V6.4h25.6V0h-32z"/></symbol></defs></svg>