<svg aria-hidden="true" style="width:0;height:0;position:absolute;overflow:hidden" xmlns="http://www.w3.org/2000/svg"><defs><symbol id="icon-gigle" viewBox="0 0 225 32"><path fill="#fff" style="fill:var(--color1,#fff)" d="M0 0v32l6.4-6.398V6.399L0 .001z"/><path fill="#fff" style="fill:var(--color1,#fff)" d="M0 32h32.001l-6.4-6.398H6.4L0 32zM0 0l6.4 6.398h25.601V0H0zM25.601 19.199v6.402l6.4 6.398V12.8l-6.4 6.398z"/><path fill="#fff" style="fill:var(--color1,#fff)" d="M12.801 12.801v6.398h12.8l6.4-6.398h-19.2zM38.404 0v32h32v-6.4h-25.6V0h-6.4zM89.606 0v31.999h6.4V0h-6.4z"/><path fill="#fff" style="fill:var(--color1,#fff)" d="M76.806 25.602V32h32.002v-6.398H76.807zM76.806 0v6.398h32.002V0H76.806zM115.21 0v32l6.4-6.398V6.399l-6.4-6.398z"/><path fill="#fff" style="fill:var(--color1,#fff)" d="M115.21 32h32.001l-6.4-6.398H121.61L115.21 32zM115.21 0l6.4 6.398h25.601V0H115.21zM140.811 19.199v6.402l6.4 6.398V12.8l-6.4 6.398z"/><path fill="#fff" style="fill:var(--color1,#fff)" d="M128.011 12.801v6.398h12.8l6.4-6.398h-19.2zM153.613 0v32h32v-6.4h-25.6V0h-6.4zM192.015 0v32h32v-6.4h-25.6v-6.4h19.2v-6.4h-19.2V6.4h25.6V0h-32z"/></symbol><symbol id="icon-mono" viewBox="0 0 151 32"><path fill="#fff" style="fill:var(--color1,#fff)" d="M44.208 30.396V9.592c0-5.901-3.223-8.703-8.635-8.703-4.5 0-8.392 2.623-10.094 5.246C24.384 2.856 21.648.889 17.331.889c-4.5 0-8.392 2.742-9.608 4.471V1.605H0v28.791h7.723V11.023c1.156-1.61 3.405-3.398 6.081-3.398 3.162 0 4.378 1.907 4.378 4.59v18.181h7.784V10.963c1.095-1.55 3.345-3.338 6.081-3.338 3.162 0 4.378 1.907 4.378 4.59v18.181h7.783zm21.223.715c-9.669 0-15.507-6.915-15.507-15.141 0-8.167 5.838-15.081 15.507-15.081 9.729 0 15.567 6.915 15.567 15.081 0 8.226-5.838 15.141-15.567 15.141zm0-6.736c4.804 0 7.54-3.875 7.54-8.405 0-4.471-2.736-8.345-7.54-8.345s-7.48 3.875-7.48 8.345c0 4.53 2.676 8.405 7.48 8.405zm48.83 6.021V10.069c0-5.603-3.101-9.18-9.547-9.18-4.804 0-8.391 2.265-10.277 4.471V1.605h-7.723v28.791h7.723V11.023c1.277-1.729 3.649-3.398 6.689-3.398 3.284 0 5.412 1.371 5.412 5.365v17.406h7.723zm21.283.715c-9.669 0-15.507-6.915-15.507-15.141 0-8.167 5.838-15.081 15.507-15.081 9.729 0 15.567 6.915 15.567 15.081 0 8.226-5.838 15.141-15.567 15.141zm0-6.736c4.804 0 7.54-3.875 7.54-8.405 0-4.471-2.736-8.345-7.54-8.345s-7.48 3.875-7.48 8.345c0 4.53 2.676 8.405 7.48 8.405z"/></symbol></defs></svg>