<svg aria-hidden="true" style="position: absolute; width: 0; height: 0; overflow: hidden;" version="1.1" xmlns="http://www.w3.org/2000/svg" xmlns:xlink="http://www.w3.org/1999/xlink">
<defs>
<symbol id="icon-gigle" viewBox="0 0 225 32">
<path fill="#fff" style="fill: var(--color1, #fff)" d="M0 0v32l6.4-6.398v-19.203l-6.4-6.398z"></path>
<path fill="#fff" style="fill: var(--color1, #fff)" d="M0 32h32.001l-6.4-6.398h-19.201l-6.4 6.398z"></path>
<path fill="#fff" style="fill: var(--color1, #fff)" d="M0 0l6.4 6.398h25.601v-6.398l-32.001 0z"></path>
<path fill="#fff" style="fill: var(--color1, #fff)" d="M25.601 19.199v6.402l6.4 6.398v-19.199l-6.4 6.398z"></path>
<path fill="#fff" style="fill: var(--color1, #fff)" d="M12.801 12.801v6.398h12.8l6.4-6.398h-19.2z"></path>
<path fill="#fff" style="fill: var(--color1, #fff)" d="M38.404 0v32h32v-6.4h-25.6v-25.6h-6.4z"></path>
<path fill="#fff" style="fill: var(--color1, #fff)" d="M89.606 0l-0 6.398 0 19.203v6.398h6.4v-6.398l-0-19.203 0-6.398h-6.4z"></path>
<path fill="#fff" style="fill: var(--color1, #fff)" d="M76.806 25.602l-0 6.398h32.002v-6.398h-32.001z"></path>
<path fill="#fff" style="fill: var(--color1, #fff)" d="M76.806 0l-0 6.398h32.002v-6.398h-32.002z"></path>
<path fill="#fff" style="fill: var(--color1, #fff)" d="M115.21 0v32l6.4-6.398v-19.203l-6.4-6.398z"></path>
<path fill="#fff" style="fill: var(--color1, #fff)" d="M115.21 32h32.001l-6.4-6.398h-19.201l-6.4 6.398z"></path>
<path fill="#fff" style="fill: var(--color1, #fff)" d="M115.21 0l6.4 6.398h25.601v-6.398l-32.001 0z"></path>
<path fill="#fff" style="fill: var(--color1, #fff)" d="M140.811 19.199v6.402l6.4 6.398v-19.199l-6.4 6.398z"></path>
<path fill="#fff" style="fill: var(--color1, #fff)" d="M128.011 12.801v6.398h12.8l6.4-6.398h-19.2z"></path>
<path fill="#fff" style="fill: var(--color1, #fff)" d="M153.613 0v32h32v-6.4h-25.6v-25.6h-6.4z"></path>
<path fill="#fff" style="fill: var(--color1, #fff)" d="M192.015 0v32h32v-6.4h-25.6v-6.4h19.2v-6.4h-19.2v-6.4h25.6v-6.4h-32z"></path>
</symbol>
<symbol id="icon-mono" viewBox="0 0 151 32">
<path fill="#fff" style="fill: var(--color1, #fff)" d="M44.208 30.396v-20.804c0-5.901-3.223-8.703-8.635-8.703-4.5 0-8.392 2.623-10.094 5.246-1.095-3.279-3.831-5.246-8.148-5.246-4.5 0-8.392 2.742-9.608 4.471v-3.755h-7.723v28.791h7.723v-19.373c1.156-1.61 3.405-3.398 6.081-3.398 3.162 0 4.378 1.907 4.378 4.59v18.181h7.784v-19.433c1.095-1.55 3.345-3.338 6.081-3.338 3.162 0 4.378 1.907 4.378 4.59l0 18.181h7.783zM65.431 31.111c-9.669 0-15.507-6.915-15.507-15.141 0-8.167 5.838-15.081 15.507-15.081 9.729 0 15.567 6.915 15.567 15.081 0 8.226-5.838 15.141-15.567 15.141zM65.431 24.375c4.804 0 7.54-3.875 7.54-8.405 0-4.471-2.736-8.345-7.54-8.345s-7.48 3.875-7.48 8.345c0 4.53 2.676 8.405 7.48 8.405zM114.261 30.396v-20.327c0-5.603-3.101-9.18-9.547-9.18-4.804 0-8.391 2.265-10.277 4.471v-3.755h-7.723v28.791h7.723v-19.373c1.277-1.729 3.649-3.398 6.689-3.398 3.284 0 5.412 1.371 5.412 5.365v17.406h7.723zM135.544 31.111c-9.669 0-15.507-6.915-15.507-15.141 0-8.167 5.838-15.081 15.507-15.081 9.729 0 15.567 6.915 15.567 15.081 0 8.226-5.838 15.141-15.567 15.141zM135.544 24.375c4.804 0 7.54-3.875 7.54-8.405 0-4.471-2.736-8.345-7.54-8.345s-7.48 3.875-7.48 8.345c0 4.53 2.676 8.405 7.48 8.405z"></path>
</symbol>
</defs>
</svg>
